<svg width="118" height="121" viewBox="0 0 118 121" fill="none" xmlns="http://www.w3.org/2000/svg">
<path d="M108.167 75.625H44.3483L29.5983 60.5L44.3483 45.375H108.167C113.575 45.375 118 49.9125 118 55.4583V65.5417C118 71.0875 113.575 75.625 108.167 75.625ZM48.4292 65.5417H108.167V55.4583H48.4292L43.5125 60.5L48.4292 65.5417ZM93.4167 30.25H44.3483L29.5983 15.125L44.3483 0H93.4167C98.825 0 103.25 4.5375 103.25 10.0833V20.1667C103.25 25.7125 98.825 30.25 93.4167 30.25ZM48.4292 20.1667H93.4167V10.0833H48.4292L43.5125 15.125L48.4292 20.1667ZM83.5833 121H44.3483L29.5983 105.875L44.3483 90.75H83.5833C88.9917 90.75 93.4167 95.2875 93.4167 100.833V110.917C93.4167 116.462 88.9917 121 83.5833 121ZM48.4292 110.917H83.5833V100.833H48.4292L43.5125 105.875L48.4292 110.917ZM9.83333 95.7917C4.425 95.7917 0 100.329 0 105.875C0 111.421 4.425 115.958 9.83333 115.958C15.2417 115.958 19.6667 111.421 19.6667 105.875C19.6667 100.329 15.2417 95.7917 9.83333 95.7917ZM9.83333 50.4167C4.425 50.4167 0 54.9542 0 60.5C0 66.0458 4.425 70.5833 9.83333 70.5833C15.2417 70.5833 19.6667 66.0458 19.6667 60.5C19.6667 54.9542 15.2417 50.4167 9.83333 50.4167ZM9.83333 5.04167C4.425 5.04167 0 9.57917 0 15.125C0 20.6708 4.425 25.2083 9.83333 25.2083C15.2417 25.2083 19.6667 20.6708 19.6667 15.125C19.6667 9.57917 15.2417 5.04167 9.83333 5.04167Z" fill="#0C89FD" fill-opacity="0.99"/>
</svg>
