<svg width="512" height="512" viewBox="0 0 512 512" fill="none" xmlns="http://www.w3.org/2000/svg">
<rect width="512" height="512" fill="#1E1E1E"/>
<g clip-path="url(#clip0_0_1)">
<path d="M469.333 320H192.427L128.427 256L192.427 192H469.333C492.8 192 512 211.2 512 234.667V277.333C512 300.8 492.8 320 469.333 320ZM210.133 277.333H469.333V234.667H210.133L188.8 256L210.133 277.333ZM405.333 128H192.427L128.427 64L192.427 0H405.333C428.8 0 448 19.2 448 42.6667V85.3333C448 108.8 428.8 128 405.333 128ZM210.133 85.3333H405.333V42.6667H210.133L188.8 64L210.133 85.3333ZM362.667 512H192.427L128.427 448L192.427 384H362.667C386.133 384 405.333 403.2 405.333 426.667V469.333C405.333 492.8 386.133 512 362.667 512ZM210.133 469.333H362.667V426.667H210.133L188.8 448L210.133 469.333ZM42.6667 405.333C19.2 405.333 0 424.533 0 448C0 471.467 19.2 490.667 42.6667 490.667C66.1333 490.667 85.3333 471.467 85.3333 448C85.3333 424.533 66.1333 405.333 42.6667 405.333ZM42.6667 213.333C19.2 213.333 0 232.533 0 256C0 279.467 19.2 298.667 42.6667 298.667C66.1333 298.667 85.3333 279.467 85.3333 256C85.3333 232.533 66.1333 213.333 42.6667 213.333ZM42.6667 21.3333C19.2 21.3333 0 40.5333 0 64C0 87.4667 19.2 106.667 42.6667 106.667C66.1333 106.667 85.3333 87.4667 85.3333 64C85.3333 40.5333 66.1333 21.3333 42.6667 21.3333Z" fill="#0C89FD" fill-opacity="0.31"/>
</g>
<defs>
<clipPath id="clip0_0_1">
<rect width="512" height="512" fill="white"/>
</clipPath>
</defs>
</svg>
